<svg width="33" height="24" viewBox="0 0 33 24" fill="none" xmlns="http://www.w3.org/2000/svg">
<path d="M1.47499 1.07635L6.27206 2.8785V22.8022L1.05165 20.8418C0.937486 20.7988 0.839131 20.7221 0.769705 20.6219C0.70028 20.5216 0.663086 20.4026 0.663086 20.2806V1.6357C0.663303 1.53879 0.687017 1.44337 0.732194 1.35763C0.777371 1.27189 0.842665 1.19837 0.922482 1.14338C1.0023 1.0884 1.09426 1.05357 1.19049 1.0419C1.28671 1.03022 1.38433 1.04205 1.47499 1.07635ZM8.07096 22.8022L13.6799 20.6955V0.7724L8.07096 2.8785V22.8022ZM18.5262 14.7129C18.5284 15.5923 18.7673 16.4549 19.2178 17.2101C19.6683 17.9654 20.3138 18.5855 21.0866 19.0055V10.4204C20.3138 10.8403 19.6683 11.4605 19.2178 12.2157C18.7673 12.971 18.5284 13.8336 18.5262 14.7129ZM16.7273 14.7129C16.7279 13.3502 17.146 12.0204 17.9254 10.9024C18.7048 9.7845 19.808 8.93211 21.0866 8.45998V3.29396C21.0867 3.17191 21.0496 3.05274 20.9802 2.95236C20.9107 2.85198 20.8123 2.77518 20.698 2.73222L15.4812 0.774199V20.6961L20.2783 22.4946C20.369 22.5286 20.4666 22.5401 20.5627 22.5282C20.6588 22.5163 20.7506 22.4812 20.8303 22.4261C20.9099 22.3709 20.9749 22.2973 21.0199 22.2115C21.0649 22.1257 21.0884 22.0303 21.0884 21.9335V20.9659C19.8095 20.494 18.7059 19.6418 17.9262 18.5238C17.1464 17.4058 16.728 16.0759 16.7273 14.7129ZM32.3885 22.4269L28.7145 18.7531C29.4667 17.7634 29.9276 16.5835 30.0452 15.3461C30.1628 14.1087 29.9325 12.8631 29.3802 11.7495C28.8279 10.636 27.9755 9.69874 26.9191 9.0434C25.8628 8.38806 24.6444 8.04066 23.4012 8.04032C22.6104 8.03707 21.8258 8.17933 21.0866 8.45998V10.4204C21.8293 10.021 22.6629 9.82107 23.506 9.84011C24.3491 9.85915 25.1728 10.0965 25.8967 10.529C26.6206 10.9616 27.2199 11.5744 27.636 12.3077C28.0521 13.0411 28.2709 13.8698 28.2709 14.7129C28.2709 15.5561 28.0521 16.3848 27.636 17.1181C27.2199 17.8514 26.6206 18.4643 25.8967 18.8968C25.1728 19.3293 24.3491 19.5667 23.506 19.5857C22.6629 19.6048 21.8293 19.4048 21.0866 19.0055V20.9659C21.8258 21.2465 22.6104 21.3888 23.4012 21.3855C24.8609 21.3854 26.2804 20.9075 27.4427 20.0246L31.1167 23.6979C31.1996 23.7838 31.2989 23.8523 31.4086 23.8994C31.5184 23.9465 31.6364 23.9713 31.7558 23.9724C31.8752 23.9734 31.9937 23.9506 32.1042 23.9054C32.2148 23.8602 32.3152 23.7934 32.3996 23.709C32.4841 23.6246 32.5509 23.5242 32.5961 23.4136C32.6413 23.3031 32.6641 23.1847 32.663 23.0653C32.662 22.9459 32.6372 22.8279 32.5901 22.7182C32.5429 22.6085 32.4744 22.5098 32.3885 22.4269Z" fill="#D2D2D2"/>
</svg>
