<svg width="25" height="30" viewBox="0 0 25 30" fill="none" xmlns="http://www.w3.org/2000/svg">
<path d="M6.32938 23.9069C7.73239 23.8944 8.88366 22.7363 8.88366 21.3305C8.88366 19.9172 7.72046 18.754 6.30722 18.754H6.27426C4.86103 18.754 3.69783 19.9172 3.69783 21.3305C3.69783 22.7363 4.8491 23.8944 6.2521 23.9069C3.46541 23.9069 1.08729 26.1276 0.742934 28.9086C0.679859 29.4172 1.0765 29.8667 1.58906 29.8667H10.9924C11.505 29.8667 11.9016 29.4172 11.8386 28.9086C11.4942 26.1276 9.11607 23.9069 6.32938 23.9069ZM14.0777 6.20866C13.7868 6.36436 13.5616 6.63933 13.3307 6.86981C12.9978 7.20212 12.4585 7.2019 12.1258 6.86924C11.6 6.34344 11.0511 5.84003 10.2418 6.127C9.28405 6.46664 9.00424 7.73287 9.72046 8.44971L12.7289 11.4613L15.7369 8.44949C16.2798 7.90664 16.2792 6.99892 15.7366 6.4563C15.3042 6.02341 14.618 5.91959 14.0777 6.20866Z" fill="#D2D2D2"/>
<path d="M16.4519 16.0606H19.8415C21.4939 16.0606 22.8384 14.7161 22.8384 13.0636V3.76934C22.8384 2.11688 21.4939 0.7724 19.8415 0.7724H5.61706C3.96459 0.7724 2.62012 2.11688 2.62012 3.76934V13.0636C2.62012 14.7161 3.96459 16.0606 5.61706 16.0606H9.00666L9.6914 16.7453L12.1263 19.1808C12.2866 19.3405 12.5031 19.4303 12.7293 19.4303C12.9554 19.4303 13.1719 19.3405 13.3322 19.1808L15.7671 16.7453L16.4519 16.0606ZM12.731 13.5171C12.3843 13.5176 12.165 13.308 12.1246 13.2676C10.9211 12.0635 9.71811 10.8588 8.51513 9.65469C7.42807 8.56706 7.3076 6.78219 8.2435 5.56046C9.30954 4.16939 11.3899 3.93754 12.7293 5.07631C13.9947 4.00005 15.9382 4.137 17.0502 5.36385C18.1515 6.57876 18.1003 8.4966 16.9428 9.65469C15.7398 10.8588 14.5369 12.0635 13.3339 13.2676C13.293 13.308 13.0753 13.5165 12.731 13.5171ZM24.73 28.9087C24.3856 26.1276 22.0075 23.9069 19.2208 23.9069C20.6238 23.8944 21.7751 22.7363 21.7751 21.3305C21.7751 19.9173 20.6119 18.7541 19.1986 18.7541H19.1657C17.7525 18.7541 16.5893 19.9173 16.5893 21.3305C16.5893 22.7363 17.7405 23.8944 19.1435 23.9069C16.3568 23.9069 13.9787 26.1276 13.6344 28.9087C13.5713 29.4172 13.9679 29.8667 14.4805 29.8667H23.8839C24.3964 29.8667 24.7931 29.4172 24.73 28.9087Z" fill="#D2D2D2"/>
</svg>
