<svg width="25" height="19" viewBox="0 0 25 19" fill="none" xmlns="http://www.w3.org/2000/svg">
<path d="M2.29702 13.2786L0.837055 3.78924C0.729057 3.08846 1.52744 2.61007 2.09462 3.03566L6.6433 6.44677C6.76154 6.53534 6.89658 6.59889 7.04019 6.63353C7.18381 6.66817 7.33297 6.67318 7.47858 6.64825C7.62419 6.62332 7.7632 6.56897 7.88711 6.48853C8.01101 6.40809 8.11723 6.30324 8.19926 6.18038L11.9864 0.500525C12.3864 -0.099459 13.2679 -0.099459 13.6679 0.500525L17.455 6.18038C17.5371 6.30324 17.6433 6.40809 17.7672 6.48853C17.8911 6.56897 18.0301 6.62332 18.1757 6.64825C18.3213 6.67318 18.4705 6.66817 18.6141 6.63353C18.7577 6.59889 18.8927 6.53534 19.011 6.44677L23.5597 3.03566C24.1277 2.61007 24.9252 3.08846 24.8172 3.78924L23.3573 13.2786H2.29702ZM22.2589 18.5441H3.39539C3.25115 18.5441 3.10832 18.5156 2.97506 18.4604C2.8418 18.4053 2.72072 18.3243 2.61872 18.2224C2.41274 18.0164 2.29702 17.737 2.29702 17.4457V15.0337H23.3573V17.4457C23.3573 18.0521 22.8653 18.5441 22.2589 18.5441Z" fill="black"/>
</svg>
