<svg width="25" height="28" viewBox="0 0 25 28" fill="none" xmlns="http://www.w3.org/2000/svg">
<path d="M18.5367 7.28669C18.5367 3.69491 15.6142 0.7724 12.0225 0.7724C8.43069 0.7724 5.50817 3.69491 5.50817 7.28669C5.50817 10.8785 8.43069 13.801 12.0225 13.801C15.6142 13.801 18.5367 10.8785 18.5367 7.28669ZM7.90817 15.8581H16.1367C20.4842 15.8581 24.0225 19.3964 24.0225 23.7438C24.0217 24.7439 23.6242 25.7027 22.917 26.4098C22.2099 27.117 21.2511 27.5145 20.251 27.5153H3.79389C2.79387 27.5145 1.83501 27.117 1.12789 26.4098C0.420767 25.7027 0.0231876 24.7439 0.0224609 23.7438C0.0224609 19.3964 3.56075 15.8581 7.90817 15.8581Z" fill="#D2D2D2"/>
</svg>
