<svg width="25" height="25" viewBox="0 0 25 25" fill="none" xmlns="http://www.w3.org/2000/svg">
<path fill-rule="evenodd" clip-rule="evenodd" d="M3.9507 5.74546C3.73682 5.76546 3.5381 5.86455 3.39345 6.02331C3.24879 6.18208 3.16862 6.3891 3.16862 6.60385C3.16862 6.8186 3.24879 7.02562 3.39345 7.18438C3.5381 7.34315 3.73682 7.44223 3.9507 7.46223C4.07021 7.47341 4.19073 7.45953 4.30456 7.42147C4.41839 7.38341 4.52302 7.32202 4.61176 7.24123C4.70049 7.16043 4.77138 7.06201 4.81989 6.95226C4.86839 6.8425 4.89345 6.72383 4.89345 6.60385C4.89345 6.48386 4.86839 6.36519 4.81989 6.25544C4.77138 6.14568 4.70049 6.04726 4.61176 5.96646C4.52302 5.88567 4.41839 5.82428 4.30456 5.78622C4.19073 5.74817 4.07021 5.73428 3.9507 5.74546ZM22.5713 19.9594C22.7418 19.9594 22.9086 19.9089 23.0504 19.8141C23.1922 19.7194 23.3028 19.5848 23.368 19.4272C23.4333 19.2697 23.4504 19.0963 23.4171 18.9291C23.3838 18.7619 23.3017 18.6082 23.1811 18.4877C23.0605 18.3671 22.9068 18.285 22.7395 18.2517C22.5722 18.2185 22.3988 18.2355 22.2412 18.3008C22.0837 18.366 21.949 18.4765 21.8542 18.6183C21.7594 18.7601 21.7089 18.9268 21.7089 19.0973C21.7089 19.326 21.7997 19.5452 21.9615 19.7069C22.1232 19.8686 22.3426 19.9594 22.5713 19.9594ZM8.8327 8.27939C9.7247 7.44797 10.8519 6.91242 12.0601 6.74602C13.2682 6.57961 14.4983 6.79049 15.582 7.34978C17.8318 8.55677 19.1366 11.5255 18.8442 15.154C20.1178 14.5366 21.2689 13.6933 22.2413 12.665C24.7836 9.95867 25.6235 6.78002 24.3861 4.79336C23.1487 2.80671 19.8341 1.8846 17.3218 4.59095C16.5044 0.999972 13.1897 0.0928565 11.1125 1.23987C9.20016 2.28193 8.31525 5.03326 8.8327 8.27939Z" fill="#D2D2D2"/>
<path fill-rule="evenodd" clip-rule="evenodd" d="M3.62811 20.2744C5.45042 22.3061 9.05005 23.8729 11.9597 24.7725C13.7746 22.8009 15.8218 20.132 16.6318 17.688C17.8016 14.5469 17.2092 9.95881 14.7945 8.84928C13.8626 8.37962 12.7893 8.27298 11.7832 8.55006C10.7771 8.82714 9.90985 9.46817 9.35002 10.3486C8.98374 10.9122 8.72916 11.5408 8.60009 12.2004C8.48011 12.0729 8.34512 11.9605 8.24763 11.848C5.79538 9.59896 2.7132 10.4761 1.49833 12.4103C0.283453 14.3445 1.12337 17.5606 3.62811 20.2744ZM5.18795 1.59236C5.18833 1.52299 5.16779 1.45512 5.12899 1.39761C5.09019 1.3401 5.03495 1.29563 4.97047 1.26999C4.90626 1.24116 4.8345 1.23361 4.76569 1.24844C4.69688 1.26328 4.63462 1.29973 4.58801 1.35246L4.25054 1.7273C4.21706 1.76331 4.17641 1.79192 4.13121 1.81129C4.08601 1.83065 4.03725 1.84035 3.98807 1.83975H3.48562C3.41521 1.83566 3.34528 1.85373 3.28567 1.89143C3.22606 1.92912 3.17976 1.98453 3.15328 2.04989C3.1268 2.11524 3.12147 2.18724 3.13804 2.25578C3.1546 2.32432 3.19224 2.38595 3.24565 2.432L3.61311 2.76936C3.65032 2.80188 3.67975 2.84234 3.69922 2.88776C3.71869 2.93317 3.7277 2.98238 3.7256 3.03175V3.53403C3.72403 3.60425 3.74394 3.67328 3.78268 3.73187C3.82141 3.79047 3.87713 3.83585 3.94236 3.86193C4.0076 3.88802 4.07924 3.89357 4.14772 3.87784C4.21619 3.86212 4.27823 3.82586 4.32554 3.77393L4.663 3.40659C4.69553 3.36939 4.73601 3.33997 4.78144 3.32051C4.82687 3.30104 4.87609 3.29203 4.92547 3.29413H5.42792C5.49836 3.29501 5.56744 3.27476 5.62625 3.23601C5.68507 3.19726 5.73092 3.14178 5.75789 3.07673C5.78469 3.01158 5.79043 2.93968 5.77429 2.87111C5.75815 2.80255 5.72095 2.74075 5.6679 2.69439L5.30043 2.35703C5.26322 2.32451 5.2338 2.28405 5.21433 2.23863C5.19486 2.19322 5.18584 2.14401 5.18795 2.09464V1.59236ZM19.2115 22.8384C19.2364 22.9037 19.2805 22.96 19.3381 22.9997C19.3957 23.0394 19.464 23.0607 19.534 23.0607C19.6039 23.0607 19.6722 23.0394 19.7298 22.9997C19.7874 22.96 19.8316 22.9037 19.8564 22.8384L20.0289 22.3661C20.0676 22.2749 20.1402 22.2024 20.2314 22.1636L20.7038 21.9912C20.7692 21.9664 20.8255 21.9222 20.8653 21.8647C20.905 21.8071 20.9263 21.7388 20.9263 21.6688C20.9263 21.5989 20.905 21.5306 20.8653 21.473C20.8255 21.4155 20.7692 21.3713 20.7038 21.3465L20.2314 21.1741C20.1849 21.1572 20.1426 21.1304 20.1076 21.0954C20.0726 21.0604 20.0458 21.0182 20.0289 20.9716C19.9839 20.8592 19.9239 20.6868 19.8564 20.5068C19.8316 20.4415 19.7874 20.3852 19.7298 20.3455C19.6722 20.3058 19.6039 20.2845 19.534 20.2845C19.464 20.2845 19.3957 20.3058 19.3381 20.3455C19.2805 20.3852 19.2364 20.4415 19.2115 20.5068C19.144 20.6868 19.0765 20.8592 19.039 20.9716C19.0222 21.0182 18.9953 21.0604 18.9603 21.0954C18.9253 21.1304 18.8831 21.1572 18.8365 21.1741L18.3641 21.3465C18.2987 21.3713 18.2424 21.4155 18.2027 21.473C18.1629 21.5306 18.1417 21.5989 18.1417 21.6688C18.1417 21.7388 18.1629 21.8071 18.2027 21.8647C18.2424 21.9222 18.2987 21.9664 18.3641 21.9912L18.8365 22.1636C18.9277 22.2024 19.0003 22.2749 19.039 22.3661C19.0765 22.486 19.144 22.6584 19.2115 22.8384Z" fill="#D2D2D2"/>
</svg>
